<?xml version="1.0"?>
<svg xmlns="http://www.w3.org/2000/svg" xmlns:xlink="http://www.w3.org/1999/xlink" xmlns:svgjs="http://svgjs.com/svgjs" version="1.1" width="512" height="512" x="0" y="0" viewBox="0 0 469.333 469.333" style="enable-background:new 0 0 512 512" xml:space="preserve" class=""><g transform="matrix(0.85,0,0,0.85,35.19997673034675,35.2000499725342)"><g xmlns="http://www.w3.org/2000/svg"><path d="m64 128c0 47.128 38.205 85.333 85.333 85.333s85.333-38.205 85.333-85.333-38.205-85.333-85.333-85.333-85.333 38.205-85.333 85.333zm128 0c0 23.564-19.103 42.667-42.667 42.667s-42.666-19.103-42.666-42.667 19.103-42.667 42.667-42.667 42.666 19.103 42.666 42.667z" fill="#16a083" data-original="#000000" class=""/><path d="m21.333 426.667h256c11.782 0 21.333-9.551 21.333-21.333v-64c0-47.128-38.205-85.333-85.333-85.333h-128c-47.128-.001-85.333 38.204-85.333 85.332v64c0 11.782 9.551 21.334 21.333 21.334zm21.334-85.334c0-23.564 19.103-42.667 42.667-42.667h128c23.564 0 42.667 19.103 42.667 42.667v42.667h-213.334z" fill="#16a083" data-original="#000000" class=""/><path d="m448 42.667h-128c-11.782 0-21.333 9.551-21.333 21.333s9.551 21.333 21.333 21.333h128c11.782 0 21.333-9.551 21.333-21.333s-9.551-21.333-21.333-21.333z" fill="#16a083" data-original="#000000" class=""/><path d="m448 128h-128c-11.782 0-21.333 9.551-21.333 21.333s9.551 21.333 21.333 21.333h128c11.782 0 21.333-9.551 21.333-21.333s-9.551-21.333-21.333-21.333z" fill="#16a083" data-original="#000000" class=""/><path d="m448 213.333h-128c-11.782 0-21.333 9.551-21.333 21.333s9.551 21.334 21.333 21.334h128c11.782 0 21.333-9.551 21.333-21.333s-9.551-21.334-21.333-21.334z" fill="#16a083" data-original="#000000" class=""/></g></g></svg>
