<?xml version="1.0"?>
<svg xmlns="http://www.w3.org/2000/svg" xmlns:xlink="http://www.w3.org/1999/xlink" xmlns:svgjs="http://svgjs.com/svgjs" version="1.1" width="512" height="512" x="0" y="0" viewBox="0 0 100 100" style="enable-background:new 0 0 512 512" xml:space="preserve" class=""><g><g xmlns="http://www.w3.org/2000/svg" id="Clock_time_timer" data-name="Clock, time, timer"><path d="M50,7.75A42.25,42.25,0,1,0,92.25,50,42.29,42.29,0,0,0,50,7.75Zm0,81.5A39.25,39.25,0,1,1,89.25,50,39.3,39.3,0,0,1,50,89.25Z" fill="#16a083" data-original="#000000" class=""/><path d="M50,16.42A33.58,33.58,0,1,0,83.58,50,33.61,33.61,0,0,0,50,16.42Zm1.5,64.12v-5a1.5,1.5,0,0,0-3,0v5a30.62,30.62,0,0,1-29-29h5a1.5,1.5,0,0,0,0-3h-5a30.62,30.62,0,0,1,29-29v5a1.5,1.5,0,0,0,3,0v-5a30.62,30.62,0,0,1,29,29h-5a1.5,1.5,0,0,0,0,3h5A30.62,30.62,0,0,1,51.5,80.54Z" fill="#16a083" data-original="#000000" class=""/><path d="M58.5,48H51V31.5a1.5,1.5,0,0,0-3,0v18A1.5,1.5,0,0,0,49.5,51h9a1.5,1.5,0,0,0,0-3Z" fill="#16a083" data-original="#000000" class=""/></g></g></svg>
